<svg width="1008" height="935" viewBox="0 0 1008 935" fill="none" xmlns="http://www.w3.org/2000/svg">
<g filter="url(#filter0_d)">
<path d="M740.746 515.244C696.746 425.303 570.918 293.572 407.417 293.227C236.795 292.855 220.293 462.096 312.254 509.125C404.215 556.154 269.747 614.783 365.877 673.705C463.172 733.327 671.087 727.734 722.267 681.352C773.448 634.97 759.751 554.1 740.746 515.244Z" fill="url(#paint0_linear)"/>
<path d="M563.772 396.028H582.958V652.033H626.94V396.028H642.933L604.949 312.206L563.772 396.028Z" fill="#85BB65"/>
<path d="M534.755 665.869C534.194 666.214 533.495 666.654 532.641 667.137C522.206 673.075 521.843 663.133 521.205 663.556L520.825 659.801L534.065 660.043L534.755 665.869Z" fill="url(#paint1_linear)"/>
<path d="M552.301 689.085C555.115 691.597 554.891 696.715 552.198 699.356C551.356 700.224 550.372 700.942 549.289 701.479C537.517 697.5 519.901 679.453 515.275 675.129C515.508 671.323 515.491 664.729 520.825 662.434C523.794 668.225 529.516 668.924 532.641 667.146C533.504 666.663 534.194 666.222 534.755 665.877C536.257 665.014 536.801 664.833 536.801 666.559C536.801 668.933 539.321 677.106 543.93 682.094C546.234 684.632 549.755 686.807 552.301 689.085Z" fill="#361F22"/>
<path d="M549.686 701.324C548.439 701.916 547.028 702.071 545.682 701.764C540.503 700.582 521.93 685.901 516.449 680.532C514.852 678.97 515.232 676.493 515.672 674.974C520.299 679.298 537.914 697.345 549.686 701.324Z" fill="#1F1844"/>
<path d="M555.072 552.124V577.386L594.299 553.013V549.586L559.827 572.484L555.072 552.124Z" fill="#361F22"/>
<path d="M502.571 690.604C500.405 691.338 498.411 686.004 495.873 684.968C494.484 684.39 492.093 684.442 490.238 684.623L489.547 678.142L502.813 676.346L504.254 686.418C504.254 686.418 504.72 689.871 502.571 690.604Z" fill="url(#paint2_linear)"/>
<path d="M547.287 584.265L537.284 663.754L517.26 662.425L516.501 590.548C516.501 590.548 508.414 524.177 501.673 525.36C494.933 526.542 508.086 683.657 508.086 683.657C508.086 683.657 504.34 685.926 495.485 685.115C492.533 684.839 490.307 684.735 488.727 684.71C487.565 684.695 486.445 684.269 485.567 683.508C484.688 682.746 484.108 681.698 483.928 680.549L458.545 515.995C463.084 510.038 467.285 503.832 471.129 497.405L493.845 500.089L500.137 478.098L509.898 500.106L536.36 494.177C536.942 500.677 538.414 507.066 540.736 513.164L547.287 584.265Z" fill="#1F1844"/>
<path d="M511.193 698.191C511.193 698.191 503.607 704.733 498.247 708.436C492.887 712.138 480.269 716.911 476.256 717.066C474.836 717.144 473.426 716.801 472.199 716.082C471.235 715.519 470.44 714.707 469.898 713.73C469.356 712.754 469.086 711.649 469.118 710.533C469.118 706.511 473.433 705.182 480.131 700.573C485.568 696.819 487.036 688.835 487.441 686.004C487.48 685.703 487.617 685.424 487.831 685.208C488.044 684.993 488.323 684.854 488.624 684.813C489.072 684.753 489.625 684.684 490.238 684.632C492.093 684.451 494.484 684.39 495.873 684.977C498.402 686.013 500.405 691.347 502.571 690.613C504.737 689.879 504.245 686.444 504.245 686.444L504.962 686.539C505.755 686.651 506.5 686.985 507.111 687.503C507.722 688.021 508.174 688.701 508.414 689.465L511.193 698.191Z" fill="#361F22"/>
<path d="M511.461 699.114C511.692 699.898 511.684 700.733 511.438 701.513C511.192 702.292 510.719 702.981 510.08 703.49C506.679 706.192 503.27 709.903 496.003 713.528C490.73 716.117 482.962 719.008 477.766 719.457C476.215 719.475 474.694 719.026 473.402 718.166C472.111 717.307 471.108 716.079 470.525 714.641C472.382 715.573 474.407 716.125 476.48 716.264C480.502 716.108 492.879 712.173 498.264 708.453C503.65 704.733 511.21 698.208 511.21 698.208L511.461 699.114Z" fill="#1F1844"/>
<path d="M517.252 327.931C518.4 325.877 519.936 320.163 520.704 318.437C517.709 318.256 514.292 322.114 513.8 324.746C514.516 324.789 516.544 327.206 517.252 327.931Z" fill="url(#paint3_linear)"/>
<path d="M497.815 374.425C495.48 374.413 493.213 373.633 491.366 372.204C489.519 370.775 488.194 368.777 487.597 366.519C487.377 365.181 487.331 363.821 487.458 362.471V361.038L487.502 359.701L487.553 358.052C486.792 358 486.034 357.902 485.283 357.759C479.406 356.628 470.266 352.356 467.832 342.638C466.106 335.863 468.945 329.847 469.213 325.929C469.481 322.01 468.039 319.136 467.573 314.708C466.978 309.029 469.636 302.125 472.501 300.623C485.387 293.822 507.551 302.09 507.551 302.09C507.551 302.09 514.913 305.879 511.003 321.449C511.806 320.974 510.08 324.22 511.159 324.038C512.09 323.855 513.049 323.872 513.973 324.088C514.897 324.304 515.764 324.713 516.518 325.29C519.246 327.646 518.969 333.006 512.962 340.057L512.755 340.307C512.485 341.782 512.309 343.272 512.229 344.769C512.229 344.994 512.229 345.227 512.177 345.46C512.004 348.222 511.771 351.804 511.556 355.256C511.245 360.244 511.176 364.56 511.115 366.226C511.003 370.282 506.317 374.718 497.815 374.425Z" fill="url(#paint4_linear)"/>
<path d="M511.046 321.415C514.939 305.879 507.594 302.056 507.594 302.056C507.594 302.056 485.43 293.788 472.544 300.589C470.525 301.642 470.016 304.671 469.42 307.252C474.599 303.566 484.593 305.802 492.525 306.527C496.322 306.872 494.363 310.842 495.416 311.092C503.943 310.091 509.225 314.674 506.99 326.489L511.115 324.021C510.244 323.926 511.823 320.957 511.046 321.415Z" fill="url(#paint5_linear)"/>
<path d="M521.188 317.591C521.843 314.855 521.887 311.843 521.757 307.7C521.49 298.776 516.458 294.064 507.801 290.68L499.438 287.988C498.678 287.746 484.533 283.862 477.067 286.469C474.271 287.444 470.266 290.378 469.834 292.778C468.73 298.897 467.962 302.142 468.445 307.053C473.848 295.143 477.602 311.075 495.761 301.443C499.127 299.656 497.608 305.758 498.653 306.009C508.276 304.878 513.782 310.851 509.009 326.3C511.599 325.376 513.437 324.228 514.896 324.323C517.114 322.45 520.842 319.024 521.188 317.591Z" fill="#1F1844"/>
<path d="M512.211 345.46C509.461 349.695 505.823 353.282 501.549 355.972C497.275 358.662 492.467 360.391 487.458 361.038L487.502 359.701L487.553 358.052C486.792 358 486.034 357.902 485.283 357.759C490.66 354.712 505.635 346.064 512.962 340.083L512.755 340.333C512.485 341.808 512.309 343.298 512.229 344.795C512.246 344.985 512.22 345.218 512.211 345.46Z" fill="url(#paint6_linear)"/>
<path d="M510.762 325.911C511.107 325.652 512.134 325.048 512.134 325.048L512.039 322.01L507.361 323.926C506.925 324.113 506.548 324.417 506.273 324.803C505.997 325.19 505.833 325.645 505.799 326.118L505.134 336.734C498.748 339.099 483.782 346.573 481.244 346.496C478.025 346.401 477.792 342.301 475.893 342.871C473.994 343.44 473.822 345.831 472.657 345.598C472.053 345.477 468.566 342.206 467.59 340.264C467.59 340.264 468.307 347.264 468.514 348.507C468.989 351.389 473.779 358 473.779 358C474.014 358.357 474.328 358.655 474.695 358.872C475.063 359.089 475.476 359.219 475.902 359.252L483.428 359.822L487.579 358.259C493.319 356.317 507.551 347.039 507.913 345.408C510.011 336.113 507.309 328.526 510.762 325.911Z" fill="#1F1844"/>
<path d="M511.452 329.061C511.452 329.061 513.722 326.274 515.086 328.57C516.449 330.865 513.912 334.499 513.912 334.499L511.452 329.061Z" fill="url(#paint7_linear)"/>
<path d="M543.282 547.921L556.418 540.826L556.211 520.716L562.9 519.43L562.805 536.165L575.682 527.975C576.688 527.353 577.859 527.052 579.04 527.112L595.947 527.785L555.072 552.124H543.662L543.282 547.921Z" fill="#361F22"/>
<path d="M484.455 468.871C477.55 452.671 468.281 407.118 468.281 407.118L472.441 401.474L466.201 396.123L473.71 370.178C477.861 369.488 480.865 369.177 480.865 369.177C480.869 369.22 480.869 369.264 480.865 369.307C480.968 369.997 484.403 373.441 485.016 378.619C485.353 381.321 485.715 384.48 486.086 387.975C488.045 405.918 486.267 454.182 484.455 468.871Z" fill="url(#paint8_linear)"/>
<path d="M536.36 494.168L509.898 500.106L500.137 478.115L493.845 500.106L471.129 497.405C475.168 490.69 475.091 497.267 478.198 490.034C480.645 484.518 482.531 478.77 483.825 472.876C483.98 472.139 484.11 471.414 484.213 470.701C484.308 470.123 484.395 469.501 484.464 468.871C486.267 454.199 488.045 405.867 486.112 387.975L489.78 398.151L497.41 419.305L503.261 402.207L516.164 378.3C519.953 391.462 522.301 415.619 527.039 428.988C527.238 429.567 527.453 430.188 527.643 430.844C531.527 443.454 534.574 476.492 536.36 494.168Z" fill="url(#paint9_linear)"/>
<path d="M503.261 402.216L497.41 419.305L489.78 398.159L492.775 381.062H496.926L503.261 402.216Z" fill="#1F1844"/>
<path d="M499.645 376.082L497.211 381.062H492.456L489.884 374.848L495.036 370.86L499.645 376.082Z" fill="#1F1844"/>
<path d="M492.775 381.062L489.78 398.151L486.103 387.975C485.732 384.523 485.37 381.321 485.033 378.619L489.884 374.848L492.473 381.062H492.775Z" fill="white"/>
<path d="M517.114 370.86L514.637 373.009L502.554 379.379L499.645 376.073L495.036 370.895L489.858 374.874L485.301 381.07C482.999 377.382 481.041 373.491 479.449 369.445L486.19 363.067L494.915 369.203L511.461 361.038L516.277 369.393L517.114 370.86Z" fill="url(#paint10_linear)"/>
<path d="M516.164 378.3L503.261 402.181L496.952 381.062H497.237L499.671 376.082L503.684 381.942L514.671 373.009C515.077 374.451 515.569 376.263 516.164 378.3Z" fill="white"/>
<path d="M569.218 512.293C569.218 512.293 575.872 526.266 575.078 528.441C574.284 530.616 562.796 536.209 562.796 536.209V524.574C562.796 524.574 558.352 523.409 556.272 526.784C556.461 529.459 556.332 532.877 556.332 532.877C556.332 532.877 551.689 528.691 552.483 524.246C552.996 521.471 553.893 518.781 555.15 516.254L569.218 512.293Z" fill="url(#paint11_linear)"/>
<path d="M595.939 527.75L597.017 542.664C597.135 544.357 596.797 546.051 596.038 547.569C595.279 549.087 594.127 550.374 592.702 551.295L559.827 572.492L555.072 552.132L595.939 527.75Z" fill="#53383D"/>
<path d="M543.662 552.124L545.112 594.328L555.072 596.702V552.124H543.662Z" fill="#361F22"/>
<path d="M555.072 577.386L594.307 553.013V565.588C594.303 566.521 594.083 567.441 593.664 568.275C593.244 569.109 592.638 569.835 591.891 570.395L555.072 596.658V577.386Z" fill="#53383D"/>
<path d="M536.265 437.058C545.664 456.59 547.796 494.323 553.389 517.437L572.014 512.258C572.014 512.258 571.306 468.621 566.534 451.342C561.355 432.752 550.42 384.79 545.664 380.035C543.369 377.739 530.129 371.646 524.131 370.627L519.703 433.537C517.847 448.321 521.982 532.083 521.982 532.083L537.517 527.189C539.176 526.669 540.601 525.585 541.546 524.126C542.491 522.667 542.898 520.924 542.695 519.197C540.684 502.324 535.446 455.217 536.265 437.058Z" fill="url(#paint12_linear)"/>
<path d="M531.89 405.634L519.643 472.548C516.104 445.404 516.19 393.343 516.19 378.326C516.19 376.177 515.077 374.451 514.671 373.009L517.148 370.86L516.285 369.41C518.624 369.652 520.411 370.049 524.139 370.67L529.818 394.345L525.356 400.291L531.89 405.634Z" fill="url(#paint13_linear)"/>
<path d="M498.299 427.884C499.834 427.884 501.078 426.64 501.078 425.105C501.078 423.57 499.834 422.326 498.299 422.326C496.764 422.326 495.52 423.57 495.52 425.105C495.52 426.64 496.764 427.884 498.299 427.884Z" fill="url(#paint14_radial)"/>
<path d="M498.696 443.626C500.231 443.626 501.475 442.382 501.475 440.847C501.475 439.312 500.231 438.068 498.696 438.068C497.161 438.068 495.917 439.312 495.917 440.847C495.917 442.382 497.161 443.626 498.696 443.626Z" fill="url(#paint15_radial)"/>
<path d="M499.645 467.637C501.18 467.637 502.424 466.393 502.424 464.858C502.424 463.323 501.18 462.079 499.645 462.079C498.11 462.079 496.866 463.323 496.866 464.858C496.866 466.393 498.11 467.637 499.645 467.637Z" fill="url(#paint16_radial)"/>
<path d="M569.287 571.629L563.772 574.857V565.191L569.287 561.971V571.629Z" fill="#361F22"/>
<path d="M589.146 559.995L583.631 563.214V553.556L589.146 550.329V559.995Z" fill="#361F22"/>
<path opacity="0.5" d="M478.275 321.639C478.275 321.639 480.701 318.92 483.626 321.993" stroke="#F2F4F6" stroke-width="1.38" stroke-miterlimit="10" stroke-linecap="round"/>
<path opacity="0.6" d="M499.153 325.238L509.924 322.865" stroke="#F2F4F6" stroke-width="2.75" stroke-miterlimit="10" stroke-linecap="round"/>
<path d="M250.475 471.314H269.67V652.033H313.652V471.314H329.645L291.661 412.133L250.475 471.314Z" fill="#85BB65"/>
<path d="M343.471 412.521H361.432V652.033H402.575V412.521H417.541L381.999 334.093L343.471 412.521Z" fill="#85BB65"/>
<path d="M695.65 420.133L644.487 500.9H668.334V652.033H722.975V500.9H742.843L695.65 420.133Z" fill="#85BB65"/>
<path opacity="0.5" d="M490.496 333.852C494.639 333.852 497.997 330.494 497.997 326.351C497.997 322.209 494.639 318.851 490.496 318.851C486.354 318.851 482.996 322.209 482.996 326.351C482.996 330.494 486.354 333.852 490.496 333.852Z" fill="url(#paint17_linear)"/>
<path opacity="0.5" d="M471.595 332.514C475.475 332.514 478.621 329.368 478.621 325.488C478.621 321.608 475.475 318.463 471.595 318.463C467.715 318.463 464.57 321.608 464.57 325.488C464.57 329.368 467.715 332.514 471.595 332.514Z" fill="url(#paint18_linear)"/>
<path d="M468.289 407.127L472.45 401.482L466.209 396.131L473.71 370.187C467.349 371.223 456.293 375.219 451.494 378.326C443.58 383.504 422.382 458.437 425.162 464.375C427.941 470.313 455.576 487.376 455.576 487.376C455.576 487.376 454.101 496.775 452.176 521.243C452.272 522.603 452.684 523.922 453.379 525.095C454.074 526.268 455.034 527.263 456.181 528.001C460.888 531.089 465.896 533.691 471.129 535.768C472.519 534.258 475.099 497.275 478.198 490.025C480.641 484.509 482.523 478.761 483.816 472.867C483.972 472.134 484.101 471.409 484.205 470.692C484.3 470.105 484.377 469.493 484.455 468.863C477.559 452.671 468.289 407.127 468.289 407.127ZM450.079 456.495L458.502 434.702L458.554 464.858L450.079 456.495Z" fill="url(#paint19_linear)"/>
<path d="M465.778 472.557C465.778 472.557 474.072 470.77 477.965 469.665C482.763 471.133 473.649 475.828 473.649 475.828H479.147C479.147 475.828 485.689 470.364 488.063 473.023C490.436 475.681 484.153 488.161 480.934 489.654C477.714 491.147 458.494 488.316 458.494 488.316C458.494 488.316 459.538 477.752 465.778 472.557Z" fill="url(#paint20_linear)"/>
</g>
<defs>
<filter id="filter0_d" x="-37" y="-75" width="1061" height="1061" filterUnits="userSpaceOnUse" color-interpolation-filters="sRGB">
<feFlood flood-opacity="0" result="BackgroundImageFix"/>
<feColorMatrix in="SourceAlpha" type="matrix" values="0 0 0 0 0 0 0 0 0 0 0 0 0 0 0 0 0 0 127 0"/>
<feOffset dy="-35"/>
<feGaussianBlur stdDeviation="125"/>
<feColorMatrix type="matrix" values="0 0 0 0 0.239216 0 0 0 0 0.235294 0 0 0 0 0.6 0 0 0 0.7 0"/>
<feBlend mode="normal" in2="BackgroundImageFix" result="effect1_dropShadow"/>
<feBlend mode="normal" in="SourceGraphic" in2="effect1_dropShadow" result="shape"/>
</filter>
<linearGradient id="paint0_linear" x1="256.853" y1="505.259" x2="757.852" y2="505.259" gradientUnits="userSpaceOnUse">
<stop stop-color="#F0F2F5"/>
<stop offset="0.99" stop-color="#F5F7F8"/>
</linearGradient>
<linearGradient id="paint1_linear" x1="520.816" y1="664.419" x2="534.755" y2="664.419" gradientUnits="userSpaceOnUse">
<stop stop-color="#753200"/>
<stop offset="1" stop-color="#A04400"/>
</linearGradient>
<linearGradient id="paint2_linear" x1="5215.71" y1="8536.71" x2="5467.63" y2="8536.71" gradientUnits="userSpaceOnUse">
<stop stop-color="#753200"/>
<stop offset="1" stop-color="#A04400"/>
</linearGradient>
<linearGradient id="paint3_linear" x1="818.677" y1="4288.12" x2="862.433" y2="4296.78" gradientUnits="userSpaceOnUse">
<stop stop-color="#753200"/>
<stop offset="1" stop-color="#A04400"/>
</linearGradient>
<linearGradient id="paint4_linear" x1="-3598.47" y1="36586.6" x2="-596.299" y2="36077.4" gradientUnits="userSpaceOnUse">
<stop stop-color="#753200"/>
<stop offset="1" stop-color="#A04400"/>
</linearGradient>
<linearGradient id="paint5_linear" x1="483.509" y1="315.968" x2="510.591" y2="305.199" gradientUnits="userSpaceOnUse">
<stop stop-color="#A04400" stop-opacity="0"/>
<stop offset="0.18" stop-color="#9A4100" stop-opacity="0.14"/>
<stop offset="0.52" stop-color="#8A3B00" stop-opacity="0.52"/>
<stop offset="0.9" stop-color="#753200"/>
</linearGradient>
<linearGradient id="paint6_linear" x1="512.486" y1="344.32" x2="487.4" y2="360.79" gradientUnits="userSpaceOnUse">
<stop stop-color="#A04400"/>
<stop offset="1" stop-color="#753200"/>
</linearGradient>
<linearGradient id="paint7_linear" x1="681.328" y1="3157.67" x2="660.547" y2="3164.75" gradientUnits="userSpaceOnUse">
<stop stop-color="#753200"/>
<stop offset="1" stop-color="#A04400"/>
</linearGradient>
<linearGradient id="paint8_linear" x1="506.93" y1="417.639" x2="466.581" y2="419.943" gradientUnits="userSpaceOnUse">
<stop offset="0.09" stop-color="#3D3C99"/>
<stop offset="0.61" stop-color="#3D3C99"/>
<stop offset="1" stop-color="#201F4F"/>
</linearGradient>
<linearGradient id="paint9_linear" x1="471.129" y1="439.216" x2="536.36" y2="439.216" gradientUnits="userSpaceOnUse">
<stop stop-color="#201F4F"/>
<stop offset="0.39" stop-color="#3D3C99"/>
<stop offset="1" stop-color="#403DA0"/>
</linearGradient>
<linearGradient id="paint10_linear" x1="12108.8" y1="4099.02" x2="13751" y2="4099.02" gradientUnits="userSpaceOnUse">
<stop stop-color="#F0F2F5"/>
<stop offset="0.99" stop-color="#F5F7F8"/>
</linearGradient>
<linearGradient id="paint11_linear" x1="10644.7" y1="9172.47" x2="9469.88" y2="9236.34" gradientUnits="userSpaceOnUse">
<stop stop-color="#753200"/>
<stop offset="1" stop-color="#A04400"/>
</linearGradient>
<linearGradient id="paint12_linear" x1="519.22" y1="451.377" x2="572.014" y2="451.377" gradientUnits="userSpaceOnUse">
<stop stop-color="#201F4F"/>
<stop offset="0.39" stop-color="#3D3C99"/>
</linearGradient>
<linearGradient id="paint13_linear" x1="6095.49" y1="26540.6" x2="8394.72" y2="26418.5" gradientUnits="userSpaceOnUse">
<stop stop-color="#201F4F"/>
<stop offset="0.39" stop-color="#3D3C99"/>
<stop offset="1" stop-color="#403DA0"/>
</linearGradient>
<radialGradient id="paint14_radial" cx="0" cy="0" r="1" gradientUnits="userSpaceOnUse" gradientTransform="translate(498.299 425.105) scale(5.2993)">
<stop offset="0.09" stop-color="#3D3C99"/>
<stop offset="1" stop-color="#201F4F"/>
</radialGradient>
<radialGradient id="paint15_radial" cx="0" cy="0" r="1" gradientUnits="userSpaceOnUse" gradientTransform="translate(2335.8 1924.73) scale(34.1275)">
<stop offset="0.09" stop-color="#3D3C99"/>
<stop offset="1" stop-color="#201F4F"/>
</radialGradient>
<radialGradient id="paint16_radial" cx="0" cy="0" r="1" gradientUnits="userSpaceOnUse" gradientTransform="translate(2342.86 2103.36) scale(34.1275)">
<stop offset="0.09" stop-color="#3D3C99"/>
<stop offset="1" stop-color="#201F4F"/>
</radialGradient>
<linearGradient id="paint17_linear" x1="5175.69" y1="2341.04" x2="5436.25" y2="2341.04" gradientUnits="userSpaceOnUse">
<stop stop-color="#F0F2F5"/>
<stop offset="0.99" stop-color="#F5F7F8"/>
</linearGradient>
<linearGradient id="paint18_linear" x1="4560.12" y1="2198.61" x2="4788.87" y2="2198.61" gradientUnits="userSpaceOnUse">
<stop stop-color="#F0F2F5"/>
<stop offset="0.99" stop-color="#F5F7F8"/>
</linearGradient>
<linearGradient id="paint19_linear" x1="20156.8" y1="54362.9" x2="11896.2" y2="50702.3" gradientUnits="userSpaceOnUse">
<stop stop-color="#201F4F"/>
<stop offset="0.39" stop-color="#3D3C99"/>
</linearGradient>
<linearGradient id="paint20_linear" x1="9018.31" y1="6855.76" x2="10067.6" y2="6855.76" gradientUnits="userSpaceOnUse">
<stop stop-color="#753200"/>
<stop offset="1" stop-color="#A04400"/>
</linearGradient>
</defs>
</svg>
